HIERARCHY
ROOT root
{
  OFFSET 0.000000 0.000000 0.000000
  CHANNELS 6 Xposition Yposition Zposition Zrotation Yrotation Xrotation
  JOINT lhipjoint
  {
    OFFSET 0.000000 0.000000 0.000000
    CHANNELS 3 Zrotation Yrotation Xrotation
    JOINT lfemur
    {
      OFFSET 0.092895 -0.080368 0.053214
      CHANNELS 3 Zrotation Yrotation Xrotation
      JOINT ltibia
      {
        OFFSET 0.119402 -0.328054 0.000000
        CHANNELS 3 Zrotation Yrotation Xrotation
        JOINT lfoot
        {
          OFFSET 0.133514 -0.366828 0.000000
          CHANNELS 3 Zrotation Yrotation Xrotation
          JOINT ltoes
          {
            OFFSET 0.010024 -0.027541 0.098137
            CHANNELS 3 Zrotation Yrotation Xrotation
            End Site
            {
              OFFSET 0.000000 -0.000000 0.051480
            }
          }
        }
      }
    }
  }
  JOINT rhipjoint
  {
    OFFSET 0.000000 0.000000 0.000000
    CHANNELS 3 Zrotation Yrotation Xrotation
    JOINT rfemur
    {
      OFFSET -0.081139 -0.080368 0.053214
      CHANNELS 3 Zrotation Yrotation Xrotation
      JOINT rtibia
      {
        OFFSET -0.118805 -0.326413 0.000000
        CHANNELS 3 Zrotation Yrotation Xrotation
        JOINT rfoot
        {
          OFFSET -0.132577 -0.364252 0.000000
          CHANNELS 3 Zrotation Yrotation Xrotation
          JOINT rtoes
          {
            OFFSET -0.012893 -0.035423 0.101865
            CHANNELS 3 Zrotation Yrotation Xrotation
            End Site
            {
              OFFSET -0.000000 -0.000000 0.054123
            }
          }
        }
      }
    }
  }
  JOINT lowerback
  {
    OFFSET 0.000000 0.000000 0.000000
    CHANNELS 3 Zrotation Yrotation Xrotation
    JOINT upperback
    {
      OFFSET 0.003509 0.109365 -0.027811
      CHANNELS 3 Zrotation Yrotation Xrotation
      JOINT thorax
      {
        OFFSET -0.001757 0.114933 -0.003291
        CHANNELS 3 Zrotation Yrotation Xrotation
        JOINT lowerneck
        {
          OFFSET -0.003947 0.121461 0.009804
          CHANNELS 3 Zrotation Yrotation Xrotation
          JOINT upperneck
          {
            OFFSET 0.002495 0.079592 0.014993
            CHANNELS 3 Zrotation Yrotation Xrotation
            JOINT head
            {
              OFFSET -0.007567 0.081194 0.003489
              CHANNELS 3 Zrotation Yrotation Xrotation
              End Site
              {
                OFFSET -0.002811 0.082321 -0.000389
              }
            }
          }
        }
        JOINT lclavicle
        {
          OFFSET -0.003947 0.121461 0.009804
          CHANNELS 3 Zrotation Yrotation Xrotation
          JOINT lhumerus
          {
            OFFSET 0.123265 0.083398 -0.020147
            CHANNELS 3 Zrotation Yrotation Xrotation
            JOINT lradius
            {
              OFFSET 0.285304 -0.000000 0.000000
              CHANNELS 3 Zrotation Yrotation Xrotation
              JOINT lwrist
              {
                OFFSET 0.191354 -0.000000 0.000000
                CHANNELS 3 Zrotation Yrotation Xrotation
                End Site
                {
                  OFFSET 0.095677 -0.000000 -0.000000
                }
              }
            }
          }
        }
        JOINT rclavicle
        {
          OFFSET -0.003947 0.121461 0.009804
          CHANNELS 3 Zrotation Yrotation Xrotation
          JOINT rhumerus
          {
            OFFSET -0.116294 0.097558 -0.026776
            CHANNELS 3 Zrotation Yrotation Xrotation
            JOINT rradius
            {
              OFFSET -0.286179 -0.000000 0.000000
              CHANNELS 3 Zrotation Yrotation Xrotation
              JOINT rwrist
              {
                OFFSET -0.177776 -0.000000 -0.000000
                CHANNELS 3 Zrotation Yrotation Xrotation
                End Site
                {
                  OFFSET -0.088888 -0.000000 -0.000000
                }
              }
            }
          }
        }
      }
    }
  }
}
MOTION
Frames: 14
Frame Time: 0.04166667
0.00000 0.86852 0.00000 -5.39713 0.00001 0.58207 0.00000 -0.00000 0.00000 -10.67092 -13.25322 -10.10590 3.19058 10.99735 32.27093 1.06924 9.42531 -25.06870 0.48848 -4.48143 -12.43520 0.00000 -0.00000 0.00000 22.55445 6.58575 -5.64126 -1.50043 -7.73714 21.91849 -0.34196 -19.87622 -30.53810 -1.59907 7.97564 -22.64013 -1.59860 2.85442 12.06810 -2.75183 3.15658 8.29405 -2.28976 1.38967 2.00415 7.13702 3.06663 -12.08580 -0.70518 3.00482 3.37137 -1.30467 1.55530 3.39698 -0.00000 0.00000 0.00000 -85.51328 -30.24847 47.47085 159.38974 -31.37058 -114.15428 -0.00000 0.00000 -4.92425 -0.00000 0.00000 0.00000 91.58447 29.41928 67.14160 -145.80103 44.23160 -105.74832 0.00000 -0.00000 -2.19576
0.00000 0.86533 0.00000 -5.02258 -3.35100 0.00529 0.00000 -0.00000 0.00000 -11.12233 -11.43328 -9.54749 3.33958 11.22546 33.04407 1.15120 9.91352 -26.09386 0.30760 -3.56568 -9.85785 0.00000 -0.00000 0.00000 22.16679 7.21986 -6.23152 -1.72489 -8.26787 23.53069 -0.29505 -18.50241 -28.48560 -2.11650 9.10464 -26.12321 -1.15846 2.04436 11.85570 -2.19290 2.14621 8.11209 -1.84733 0.89262 1.88687 7.79422 3.26302 -11.61430 -3.42354 3.43412 4.79948 -2.07665 1.68305 3.49998 -0.00000 0.00000 0.00000 -86.59498 -33.20818 48.80598 158.75576 -32.11234 -113.82074 -0.00000 0.00000 -4.58385 -0.00000 0.00000 0.00000 93.39752 30.59757 68.01125 -149.10206 41.65073 -107.99804 0.00000 -0.00000 -0.58395
0.00000 0.86965 0.00000 -4.02743 -6.39795 0.87681 0.00000 -0.00000 0.00000 -12.23077 -11.24306 -8.26331 2.88688 10.50964 30.64337 0.95826 12.57301 -26.93832 0.30173 -3.53181 -9.76304 0.00000 -0.00000 0.00000 21.38800 9.79580 -6.16186 -1.59744 -7.97176 22.62834 -0.15574 -18.65511 -27.63653 -2.25655 9.38117 -26.99509 -1.30808 1.83268 10.89960 -1.96163 1.92303 7.43837 -1.48029 0.79314 1.67169 8.13870 3.34709 -11.41770 -5.75853 3.73407 5.62906 -2.83135 1.73641 3.79297 -0.00000 0.00000 0.00000 -86.18821 -37.14142 49.23501 159.19585 -31.59902 -114.05301 -0.00000 0.00000 -4.59284 -0.00000 0.00000 0.00000 94.07297 35.62435 69.31307 -150.09753 40.80965 -108.65417 0.00000 -0.00000 -1.46479
0.00000 0.86766 0.00000 -3.21764 -6.39328 0.39546 0.00000 -0.00000 0.00000 -12.65745 -10.56139 -8.50606 2.94594 10.60702 30.96570 0.92252 12.04996 -26.18190 0.35017 -3.80205 -10.52043 0.00000 -0.00000 0.00000 20.67250 8.93795 -7.77673 -1.94384 -8.74811 25.01050 -0.37336 -17.42514 -27.73472 -2.19242 9.25588 -26.59906 -0.89568 1.54707 11.66860 -1.68084 1.53509 7.80703 -1.39910 0.59361 1.64076 8.42416 3.55459 -11.21520 -7.99045 4.13180 4.76054 -3.54649 1.82577 3.58384 0.00000 0.00000 0.00000 -85.12023 -41.87195 47.85300 158.83095 -32.02514 -113.86066 -0.00000 0.00000 -3.90327 0.00000 0.00000 0.00000 95.06571 40.62726 71.92850 -149.80579 41.05928 -108.46303 0.00000 -0.00000 -1.08707
0.00000 0.86065 0.00000 -2.89571 -4.34476 -0.79600 0.00000 -0.00000 0.00000 -12.18519 -10.20536 -9.73009 3.40456 11.32281 33.37646 1.08454 9.71166 -25.41870 0.41224 -4.12150 -11.41875 0.00000 -0.00000 0.00000 20.61946 6.55568 -9.71948 -2.59514 -10.00888 29.00548 -0.75268 -16.04210 -28.91941 -2.27297 9.41291 -27.09569 -1.63654 1.64201 13.14960 -0.77318 1.49046 8.65476 -0.06107 0.48601 1.69743 7.45569 3.16622 -10.72510 -8.19187 3.75261 4.00675 -3.48384 1.62044 3.23296 0.00000 -0.00000 0.00000 -85.35809 -43.27230 47.18954 158.63919 -32.24708 -113.75866 -0.00000 0.00000 -2.89197 0.00000 -0.00000 0.00000 94.32389 41.85377 73.81284 -149.50829 41.31115 -108.26712 0.00000 -0.00000 -0.96589
0.00000 0.85594 0.00000 -2.86660 -3.10124 -0.48922 0.00000 -0.00000 0.00000 -11.29954 -10.18841 -12.02370 3.98993 12.14699 36.25396 1.16127 9.06264 -25.50489 0.92649 -6.13202 -17.16795 0.00000 -0.00000 0.00000 20.92444 5.48432 -12.50299 -3.24577 -11.08267 32.55918 -0.95830 -15.24201 -29.51707 -2.45890 9.76278 -28.21191 -0.65736 2.34303 13.74960 -2.22552 2.45211 9.02792 -2.24886 1.02688 1.88122 7.46049 1.91416 -11.22740 -5.29723 1.84043 4.03258 -2.70975 0.79659 3.13324 0.00000 0.00000 0.00000 -82.07475 -39.60514 45.11157 158.75367 -32.11476 -113.81963 -0.00000 0.00000 -3.92646 0.00000 0.00000 0.00000 94.60774 39.75390 74.03947 -149.37869 41.42003 -108.18147 0.00000 -0.00000 -0.43502
0.00000 0.83981 0.00000 -3.36562 -3.46340 -1.15972 0.00000 -0.00000 0.00000 -9.30508 -7.65535 -15.51435 5.33108 13.74722 42.23414 1.61658 6.17658 -26.92649 1.30810 -7.24504 -20.44337 0.00000 -0.00000 0.00000 21.57295 4.80099 -16.77237 -4.87921 -13.24647 40.29823 -1.39823 -12.87931 -30.27229 -2.73161 10.24736 -29.78151 -1.27401 3.05208 14.61380 -2.98730 3.18263 9.96617 -2.81249 1.33903 2.47414 5.23642 0.30619 -10.56550 -0.34387 -0.29680 2.28376 -1.04550 -0.11833 2.57263 0.00000 -0.00000 0.00000 -79.21559 -32.18355 39.14364 158.21824 -32.72950 -113.53255 -0.00000 0.00000 -4.72504 0.00000 -0.00000 0.00000 91.96331 38.29993 70.86614 -150.06348 40.83892 -108.63191 0.00000 -0.00000 -0.99194
0.00000 0.81624 0.00000 -3.75535 -8.42298 -2.23637 0.00000 -0.00000 0.00000 -7.59598 -3.50400 -18.34117 7.34630 15.61671 50.17223 2.20794 5.40743 -30.40506 1.44207 -7.59179 -21.48089 0.00000 -0.00000 0.00000 22.41839 8.35400 -19.61256 -6.97533 -15.31108 48.78095 -1.84450 -10.80522 -31.47247 -2.82658 10.40889 -30.31124 -3.19241 3.44441 15.53750 -4.02057 3.27903 10.33960 -2.88373 1.25817 2.35922 4.45439 0.46405 -8.76305 2.36647 0.00277 0.47581 -0.01340 0.04440 1.63579 -0.00000 0.00000 0.00000 -78.01482 -15.37062 28.20747 154.73111 -36.47756 -111.55076 -0.00000 0.00000 -8.17631 -0.00000 0.00000 0.00000 87.82251 35.76418 66.63268 -150.56081 40.40783 -108.95572 0.00000 -0.00000 -0.40380
0.00000 0.80823 0.00000 -3.85242 -19.18151 -1.85382 0.00000 -0.00000 0.00000 -7.45981 2.62815 -17.75683 7.94540 16.07895 52.36578 2.71330 7.42424 -34.39530 0.77758 -5.63007 -15.71477 0.00000 -0.00000 0.00000 23.03501 14.16751 -20.39320 -7.65106 -15.85651 51.29588 -1.75834 -8.31888 -29.22251 -3.43656 11.37029 -33.53912 -4.70960 3.40039 15.16370 -6.07663 2.84952 9.85356 -4.15866 0.96096 2.07219 6.31960 2.41199 -7.99282 1.88217 2.48510 -0.77289 -0.39084 1.22141 1.15773 0.00000 0.00000 0.00000 -81.62407 3.80925 9.85478 140.93847 -47.50395 -102.25586 -0.00000 0.00000 -18.30270 0.00000 0.00000 0.00000 85.35946 32.86990 64.87692 -150.94351 40.07082 -109.20294 0.00000 -0.00000 -0.42105
0.00000 0.82361 0.00000 -3.76591 -32.67037 -0.16651 0.00000 -0.00000 0.00000 -9.45794 8.30160 -13.79863 6.30440 14.71698 46.19151 2.88911 12.18479 -38.12790 0.11641 -2.19974 -6.05798 0.00000 -0.00000 0.00000 23.29042 19.89667 -18.47366 -6.17386 -14.59474 45.67558 -1.33942 -3.57823 -23.41071 -3.89605 12.02078 -35.80553 -6.52257 2.37906 13.93580 -7.67944 1.18166 8.55134 -4.60013 0.05255 1.26491 8.95623 5.65029 -6.91984 -2.56592 6.77835 -2.27022 -2.13631 3.26368 0.88397 -0.00000 0.00000 0.00000 -77.94241 7.64536 -4.92342 110.37501 -58.37176 -77.54881 -0.00000 0.00000 -27.89230 -0.00000 0.00000 0.00000 83.91795 30.15705 66.77066 -152.81068 38.35914 -110.38361 0.00000 -0.00000 -2.21776
0.00000 0.84712 0.00000 -2.87395 -42.63672 1.08950 0.00000 -0.00000 0.00000 -12.73838 11.20790 -7.72051 3.71125 11.76592 34.90884 2.96541 16.59427 -41.51869 0.06383 1.63009 4.48442 0.00000 -0.00000 0.00000 22.97432 23.65708 -14.52795 -4.03761 -12.21028 36.47996 -0.79364 -0.30900 -16.95130 -4.05735 12.23633 -36.57323 -8.25950 0.88420 11.87190 -8.28832 -0.84261 7.26432 -3.99648 -0.99164 0.95359 9.76752 8.39692 -2.47848 -7.44844 10.74370 -6.60310 -4.03380 5.22356 -0.68821 -0.00000 -0.00000 0.00000 -58.02682 1.40507 -13.30994 94.01606 -59.93897 -63.47730 -0.00000 0.00000 -28.32010 -0.00000 -0.00000 0.00000 79.32161 27.46522 64.31206 -155.18926 36.00992 -111.82163 0.00000 -0.00000 -5.09518
0.00000 0.86433 0.00000 -1.04896 -42.47975 1.17852 0.00000 -0.00000 0.00000 -15.42445 5.91955 -1.05166 1.75156 8.32819 23.71543 3.37452 18.99990 -45.01375 0.77423 5.61819 15.68051 0.00000 -0.00000 0.00000 22.01123 25.10915 -11.41235 -2.73669 -10.25608 29.81004 -0.50120 -2.78161 -14.67741 -3.65988 11.69350 -34.65615 -9.59157 -0.81192 10.94470 -8.29368 -3.05662 6.95616 -3.05027 -2.11507 1.18799 11.96660 9.27415 0.61032 -12.73750 11.94910 -8.26773 -5.73534 5.95866 -1.00466 -0.00000 0.00000 0.00000 -17.64445 -20.88808 -25.96336 47.49187 -51.93245 -24.18508 -0.00000 0.00000 -23.70230 -0.00000 0.00000 0.00000 73.09174 23.31973 56.65123 -157.42600 33.61967 -113.09902 0.00000 -0.00000 -7.07748
0.00000 0.87119 0.00000 -1.18529 -36.09935 2.06886 0.00000 -0.00000 0.00000 -14.79103 -0.53703 0.56616 1.27378 7.15301 20.16947 2.98580 19.72339 -43.96928 0.98123 6.30543 17.67323 0.00000 -0.00000 0.00000 22.04786 23.36913 -10.34520 -2.13118 -9.13414 26.21584 -0.33420 -7.00270 -15.67912 -3.26014 11.10471 -32.63383 -11.64990 -1.96235 11.75200 -6.30579 -4.63014 7.35260 0.31327 -2.94060 1.56420 13.41670 9.85390 0.37221 -14.58740 12.83700 -6.29188 -6.37736 6.41739 -0.04519 0.00000 0.00000 0.00000 28.30742 -43.23564 -65.11625 12.11502 -19.97692 -2.14143 -0.00000 -0.00000 3.75972 0.00000 0.00000 0.00000 68.41009 21.44456 49.86656 -157.87620 33.11666 -113.34665 0.00000 -0.00000 -8.48306
0.00000 0.87454 0.00000 -1.11714 -31.15517 2.90007 0.00000 -0.00000 0.00000 -14.35419 -4.06956 -0.29932 1.19506 6.93657 19.52758 1.90583 21.16929 -40.49089 0.50032 4.53466 12.58592 0.00000 -0.00000 0.00000 21.53041 22.41239 -10.24477 -1.89577 -8.64551 24.69257 -0.17678 -10.42196 -17.31985 -2.98445 10.66983 -31.17428 -10.88590 -2.24799 12.11970 -4.67374 -4.79703 7.56591 1.63614 -2.98447 1.69125 12.50560 9.63221 -1.13146 -15.10120 12.48450 -4.59769 -6.27709 6.19606 0.62601 -0.00000 -0.00000 0.00000 50.21238 -54.97719 -73.24047 12.50451 -20.55693 -2.27634 -0.00000 -0.00000 4.78805 -0.00000 -0.00000 0.00000 69.39546 23.87508 51.12317 -155.85586 35.31631 -112.21028 0.00000 -0.00000 -6.81027
